<svg xmlns="http://www.w3.org/2000/svg" viewBox="0 0 320 320" width="320" height="320" role="img" aria-label="WAP MOP SHOPPE guild seal">
  <defs>
    <style>
      :root{
        --ink:#2f4f2f;
        --paper:#fbf3e6;
      }
      .paper{ fill:var(--paper); }
      .ring1{ fill:none; stroke:var(--ink); stroke-width:10; }
      .ring2{ fill:none; stroke:var(--ink); stroke-width:2.5; opacity:.85; }
      .mark{ fill:var(--ink); }
      .type{
        fill:var(--ink);
        font-family: "Cormorant Garamond","Garamond","Times New Roman",serif;
        font-weight: 700;
        letter-spacing: .22em;
      }
    </style>

    <!-- Explicit TOP arc: left -> right across the top -->
    <path id="arcTop" d="M 50 160 A 110 110 0 0 1 270 160" />

    <!-- Explicit BOTTOM arc: left -> right across the bottom -->
    <path id="arcBottom" d="M 50 160 A 110 110 0 0 0 270 160" />
  </defs>

  <!-- Seal base -->
  <circle cx="160" cy="160" r="150" class="paper"/>
  <circle cx="160" cy="160" r="142" class="ring1"/>
  <circle cx="160" cy="160" r="118" class="ring2"/>

  <!-- Curved top text (upright, centered) -->
  <text class="type" font-size="20">
    <textPath href="#arcTop" startOffset="50%" text-anchor="middle">
      WAP  MOP
    </textPath>
  </text>

  <!-- Curved bottom text (upright, centered) -->
  <text class="type" font-size="18">
    <textPath href="#arcBottom" startOffset="50%" text-anchor="middle">
      SHOPPE
    </textPath>
  </text>

  <!-- Center mustache -->
  <path class="mark" d="
    M70 175
    C82 142, 118 132, 150 150
    C156 153, 160 156, 160 156
    C160 156, 164 153, 170 150
    C202 132, 238 142, 250 175
    C233 202, 195 205, 172 190
    C166 186, 160 184, 160 184
    C160 184, 154 186, 148 190
    C125 205, 87 202, 70 175
    Z
  "/>

  <!-- Divider dots -->
  <circle cx="64" cy="160" r="4" class="mark" opacity=".85"/>
  <circle cx="256" cy="160" r="4" class="mark" opacity=".85"/>
</svg>
